<svg width="640" height="160" viewBox="0 0 640 160" fill="none" xmlns="http://www.w3.org/2000/svg">
  <defs>
    <linearGradient id="g1" x1="18" y1="18" x2="142" y2="142" gradientUnits="userSpaceOnUse">
      <stop stop-color="#22D3EE"/>
      <stop offset="1" stop-color="#3B82F6"/>
    </linearGradient>
    <linearGradient id="g2" x1="0" y1="0" x2="1" y2="1">
      <stop stop-color="#7DD3FC" stop-opacity="0.75"/>
      <stop offset="1" stop-color="#22D3EE" stop-opacity="0.15"/>
    </linearGradient>
  </defs>
  <rect x="8" y="8" width="144" height="144" rx="34" fill="url(#g1)"/>
  <rect x="32" y="32" width="96" height="96" rx="24" fill="#020617" fill-opacity="0.9"/>
  <path d="M56 52H104C117.255 52 128 62.7452 128 76C128 89.2548 117.255 100 104 100H56V52ZM98 88C104.627 88 110 82.6274 110 76C110 69.3726 104.627 64 98 64H72V88H98Z" fill="#E2E8F0"/>
  <path d="M84 110H116V120H84V110Z" fill="#22D3EE" fill-opacity="0.8"/>
  <path d="M344 58C350.667 39.3333 364 30 384 30C397.333 30 408.667 34.3333 418 43C427.333 51 432 62.3333 432 77C432 91.6667 427.333 103.333 418 112C408.667 120 397.333 124 384 124C364 124 350.667 114.667 344 96H368C372.667 103.333 378 107 384 107C391.333 107 397 104.333 401 99C405.667 93.6667 408 86.3333 408 77C408 67.6667 405.667 60.3333 401 55C397 49.6667 391.333 47 384 47C378 47 372.667 50.6667 368 58H344Z" fill="#0F172A"/>
  <path d="M181 52H303V68H200V82H290V97H200V108H307V124H181V52Z" fill="#0F172A"/>
  <path d="M448 52H468V124H448V52Z" fill="#0F172A"/>
  <path d="M482 52H564V68H534V124H514V68H482V52Z" fill="#0F172A"/>
  <path d="M574 52H594V92C594 98.6667 595.667 103.667 599 107C603 110.333 607.667 112 613 112C618.333 112 622.667 110.333 626 107C629.333 103.667 631 98.6667 631 92V52H640V92C640 103.333 637 112.333 631 119C625 125 616.667 128 606 128C595.333 128 587.333 125 582 119C576.667 112.333 574 103.333 574 92V52Z" fill="#0F172A"/>
  <text x="178" y="118" fill="#475569" font-family="Arial, Helvetica, sans-serif" font-size="22" font-weight="700" letter-spacing="7">PREMIUM SPORTS FACILITY</text>
  <rect x="176" y="24" width="464" height="112" rx="32" fill="url(#g2)" fill-opacity="0.12"/>
</svg>
