<svg width="1600" height="960" viewBox="0 0 1600 960" fill="none" xmlns="http://www.w3.org/2000/svg">
  <rect width="1600" height="960" fill="#020617"/>
  <rect width="1600" height="960" fill="url(#bg)"/>
  <ellipse cx="1280" cy="140" rx="360" ry="220" fill="#22D3EE" fill-opacity="0.16"/>
  <ellipse cx="240" cy="860" rx="420" ry="220" fill="#22C55E" fill-opacity="0.12"/>
  <rect x="510" y="150" width="580" height="640" rx="32" stroke="#E2E8F0" stroke-opacity="0.18" stroke-width="10"/>
  <path d="M560 220L1040 220V720H560V220Z" fill="#14532D" fill-opacity="0.28" stroke="#22C55E" stroke-opacity="0.22" stroke-width="4"/>
  <path d="M640 150V790M800 150V790M960 150V790" stroke="#E2E8F0" stroke-opacity="0.10" stroke-width="4" stroke-dasharray="14 10"/>
  <path d="M510 300H1090M510 460H1090M510 620H1090" stroke="#E2E8F0" stroke-opacity="0.08" stroke-width="4" stroke-dasharray="14 10"/>
  <rect x="160" y="128" width="360" height="86" rx="24" fill="#020617" fill-opacity="0.62" stroke="#E2E8F0" stroke-opacity="0.12"/>
  <text x="194" y="182" fill="#F8FAFC" font-size="42" font-family="Arial, Helvetica, sans-serif" font-weight="700">Cricket</text>
  <rect x="770" y="520" width="20" height="116" rx="8" fill="#F8FAFC"/>
  <rect x="800" y="520" width="20" height="116" rx="8" fill="#F8FAFC"/>
  <rect x="830" y="520" width="20" height="116" rx="8" fill="#F8FAFC"/>
  <circle cx="668" cy="558" r="18" fill="#EF4444"/>
  <path d="M920 430L1000 660" stroke="#D6D3D1" stroke-width="24" stroke-linecap="round"/>
  <rect x="898" y="390" width="80" height="110" rx="18" fill="#D6D3D1" transform="rotate(-10 898 390)"/>
  <defs>
    <linearGradient id="bg" x1="0" y1="0" x2="1600" y2="960" gradientUnits="userSpaceOnUse">
      <stop stop-color="#08111D"/>
      <stop offset="0.52" stop-color="#0F2F28"/>
      <stop offset="1" stop-color="#08111D"/>
    </linearGradient>
  </defs>
</svg>
