<svg width="1600" height="960" viewBox="0 0 1600 960" fill="none" xmlns="http://www.w3.org/2000/svg">
  <rect width="1600" height="960" fill="#020617"/>
  <rect width="1600" height="960" fill="url(#bg)"/>
  <ellipse cx="1320" cy="180" rx="340" ry="220" fill="#22D3EE" fill-opacity="0.16"/>
  <ellipse cx="220" cy="840" rx="420" ry="220" fill="#34D399" fill-opacity="0.12"/>
  <path d="M210 800L800 460L1390 800L800 930L210 800Z" fill="#0F766E" fill-opacity="0.18" stroke="#86EFAC" stroke-opacity="0.20"/>
  <path d="M310 756L800 510L1290 756L800 868L310 756Z" fill="#1D4ED8" fill-opacity="0.18" stroke="#E2E8F0" stroke-opacity="0.22"/>
  <path d="M800 510V868" stroke="#E2E8F0" stroke-opacity="0.18" stroke-width="4"/>
  <path d="M555 620H1045" stroke="#E2E8F0" stroke-opacity="0.18" stroke-width="4"/>
  <path d="M462 700H1140" stroke="#E2E8F0" stroke-opacity="0.12" stroke-width="4"/>
  <path d="M460 604H1140" stroke="#E2E8F0" stroke-width="6" stroke-opacity="0.24"/>
  <path d="M460 616H1140" stroke="#E2E8F0" stroke-opacity="0.18" stroke-dasharray="12 10" stroke-width="4"/>
  <rect x="160" y="128" width="420" height="86" rx="24" fill="#020617" fill-opacity="0.62" stroke="#E2E8F0" stroke-opacity="0.12"/>
  <text x="194" y="182" fill="#F8FAFC" font-size="42" font-family="Arial, Helvetica, sans-serif" font-weight="700">Pickleball</text>
  <circle cx="1210" cy="706" r="22" fill="#A3E635"/>
  <rect x="1092" y="548" width="44" height="170" rx="20" transform="rotate(18 1092 548)" fill="#1E293B" stroke="#F8FAFC" stroke-width="8"/>
  <circle cx="1115" cy="590" r="36" fill="#111827" stroke="#F8FAFC" stroke-width="8"/>
  <defs>
    <linearGradient id="bg" x1="0" y1="0" x2="1600" y2="960" gradientUnits="userSpaceOnUse">
      <stop stop-color="#08111D"/>
      <stop offset="0.52" stop-color="#11314A"/>
      <stop offset="1" stop-color="#08111D"/>
    </linearGradient>
  </defs>
</svg>
